# xmcd
#
# Track frame offsets: 
#        150
#        12352
#        24787
#        37302
#        49712
#        62562
#        74222
#        86579
#        99784
#        112459
#        124629
#        137217
#        148719
#        160614
#        172891
#        183849
#        197001
#        208074
#        219179
#        228967
#        241982
#        253492
#        265327
#        276337
#        288027
#        300245
#        313945
#        324075
#        333155
#        341255
#
# Disc length: 4716 seconds
#
# Revision: 0
# Processed by: cddbd v1.5.1PL0 Copyright (c) Steve Scherf et al.
# Submitted via: ExactAudioCopy v0.95a5
#
DISCID=b1126a1e
DTITLE=Hank Williams - The Original Singles Collection
DYEAR=2005
DGENRE=Country
TTITLE0=Never Again (Will I Knock On Your Door)
TTITLE1=Move It On Over
TTITLE2=Rootie Tootie
TTITLE3=Honky Tonkin'
TTITLE4=I'm A Long Gone Daddy
TTITLE5=A Mansion On The Hill
TTITLE6=Lovesick Blues
TTITLE7=Mind Your Own Business
TTITLE8=There'll Be No Teardrops Tonight
TTITLE9=Lost Highway
TTITLE10=I'm So Lonesome I Could Cry
TTITLE11=My Bucket's Got A Hole In It
TTITLE12=Long Gone Lonesome Blues
TTITLE13=Cold, Cold Heart
TTITLE14=My Heart Would Know
TTITLE15=Hey, Good Lookin'
TTITLE16=(I Heard That) Lonesome Whistle
TTITLE17=Crazy Heart
TTITLE18=Honky Tonk Blues
TTITLE19=Jambalaya (On The Bayou)
TTITLE20=Window Shopping
TTITLE21=You Win Again
TTITLE22=I'll Never Get Out Of This World Alive
TTITLE23=Kaw-Liga
TTITLE24=Your Cheatin' Heart
TTITLE25=Ramblin' Man
TTITLE26=House Of Gold
TTITLE27=Alone And Forsaken
TTITLE28=Angel Of Death
TTITLE29=There's A Tear In My Beer
EXTD=
EXTT0=
EXTT1=
EXTT2=
EXTT3=
EXTT4=
EXTT5=
EXTT6=
EXTT7=
EXTT8=
EXTT9=
EXTT10=
EXTT11=
EXTT12=
EXTT13=
EXTT14=
EXTT15=
EXTT16=
EXTT17=
EXTT18=
EXTT19=
EXTT20=
EXTT21=
EXTT22=
EXTT23=
EXTT24=
EXTT25=
EXTT26=
EXTT27=
EXTT28=
EXTT29=
PLAYORDER=
